<svg width="25" height="25" viewBox="0 0 25 25" fill="none" xmlns="http://www.w3.org/2000/svg">
<rect x="0.313477" y="0.0435791" width="24.6527" height="24.6527" rx="0.814815" fill="white"/>
<path d="M22.7422 4.53934L2.6333 4.53931L2.6333 19.621H22.7422V4.53934Z" fill="white"/>
<path d="M2.6333 4.53931L2.6333 4.33561C2.57928 4.33561 2.52746 4.35707 2.48926 4.39527C2.45106 4.43348 2.4296 4.48529 2.4296 4.53931H2.6333ZM22.7422 4.53934H22.9459C22.9459 4.42684 22.8547 4.33564 22.7422 4.33564L22.7422 4.53934ZM22.7422 19.621V19.8247C22.8547 19.8247 22.9459 19.7335 22.9459 19.621H22.7422ZM2.6333 19.621H2.4296C2.4296 19.7335 2.5208 19.8247 2.6333 19.8247V19.621ZM5.46111 13.0227H5.25741V13.2265H5.46111V13.0227ZM19.6002 13.0227V13.2265H19.8039V13.0227H19.6002ZM19.6002 6.11032H19.8039V5.90662H19.6002V6.11032ZM5.46111 6.11032V5.90662H5.25741V6.11032H5.46111ZM2.6333 4.74302L22.7422 4.74305L22.7422 4.33564L2.6333 4.33561L2.6333 4.74302ZM22.5385 4.53934V19.621H22.9459V4.53934H22.5385ZM22.7422 19.4173H2.6333V19.8247H22.7422V19.4173ZM2.837 19.621L2.837 4.53931H2.4296L2.4296 19.621H2.837ZM5.46111 13.2265H19.6002V12.819H5.46111V13.2265ZM19.8039 13.0227V6.11032H19.3965V13.0227H19.8039ZM19.6002 5.90662H5.46111V6.31402H19.6002V5.90662ZM5.25741 6.11032V13.0227H5.66482V6.11032H5.25741ZM5.46111 14.7975H12.6877V14.39H5.46111V14.7975ZM13.6303 14.7975H19.9144V14.39H13.6303V14.7975ZM5.46111 15.4259H19.9144V15.0185H5.46111V15.4259ZM5.46111 16.3685H15.8298V15.9611H5.46111V16.3685ZM16.4582 16.3685H19.6002V15.9611H16.4582V16.3685ZM5.46111 16.9969H13.0019V16.5895H5.46111V16.9969ZM13.6303 16.9969H19.6002V16.5895H13.6303V16.9969ZM5.46111 17.6253H13.6303V17.2179H5.46111V17.6253ZM13.6303 17.6253H19.6002V17.2179H13.6303V17.6253ZM5.46111 18.5679H9.85993V18.1605H5.46111V18.5679ZM10.4883 18.5679H19.6002V18.1605H10.4883V18.5679Z" fill="black"/>
</svg>
