<svg width="26" height="26" viewBox="0 0 26 26" fill="none" xmlns="http://www.w3.org/2000/svg">
<rect x="0.633301" y="0.472656" width="24.6527" height="24.6527" rx="0.814815" fill="white"/>
<path d="M23.063 5.3549V20.4365C18.181 20.1692 13.0085 19.9267 13.0085 20.4365C13.0085 19.8081 6.82073 20.2548 2.9541 20.4365L2.9541 5.35486C6.09611 5.35486 13.0085 4.09806 13.0085 5.35488C13.0085 4.09806 19.1365 5.35489 23.063 5.3549Z" fill="white"/>
<path d="M23.063 5.3549H23.2667C23.2667 5.24239 23.1755 5.15119 23.063 5.15119L23.063 5.3549ZM23.063 20.4365L23.0518 20.6399C23.1077 20.643 23.1624 20.6229 23.203 20.5844C23.2437 20.546 23.2667 20.4925 23.2667 20.4365H23.063ZM2.9541 20.4365H2.7504C2.7504 20.4922 2.77319 20.5455 2.81348 20.5839C2.85377 20.6223 2.90804 20.6426 2.96366 20.64L2.9541 20.4365ZM2.9541 5.35486V5.15116C2.8416 5.15116 2.7504 5.24236 2.7504 5.35486H2.9541ZM22.8593 5.3549V20.4365H23.2667V5.3549H22.8593ZM3.15781 20.4365L3.15781 5.35486H2.7504L2.7504 20.4365H3.15781ZM2.9541 5.55857C4.53422 5.55857 7.07333 5.24236 9.17462 5.08671C10.2347 5.00819 11.1827 4.97021 11.8622 5.02764C12.2044 5.05655 12.4596 5.10838 12.6233 5.18047C12.7874 5.25273 12.8048 5.3168 12.8048 5.35488H13.2122C13.2122 5.07875 13.0136 4.90717 12.7875 4.8076C12.5609 4.70786 12.2515 4.65168 11.8965 4.62168C11.1818 4.56127 10.2053 4.60184 9.14453 4.68042C7.00411 4.83896 4.51599 5.15116 2.9541 5.15116V5.55857ZM13.2122 5.35488C13.2122 5.3039 13.234 5.24323 13.3692 5.17694C13.5106 5.10759 13.7356 5.05627 14.0462 5.02749C14.6628 4.97036 15.5358 5.00809 16.5475 5.08667C18.5544 5.24254 21.0895 5.5586 23.063 5.5586L23.063 5.15119C21.11 5.15119 18.6178 4.83883 16.5791 4.68049C15.5681 4.60196 14.6637 4.56113 14.0086 4.62182C13.6834 4.65196 13.3989 4.70865 13.1898 4.81113C12.9746 4.91667 12.8048 5.09166 12.8048 5.35488H13.2122ZM23.0741 20.2331C20.6336 20.0995 18.1162 19.9718 16.2083 19.9414C15.2553 19.9262 14.4482 19.9352 13.8768 19.9808C13.593 20.0034 13.3563 20.0359 13.1862 20.0828C13.1026 20.1059 13.0202 20.1363 12.9545 20.1803C12.8902 20.2234 12.8048 20.3062 12.8048 20.4365H13.2122C13.2122 20.5031 13.1673 20.5281 13.1812 20.5188C13.1936 20.5105 13.2271 20.4941 13.2945 20.4755C13.4263 20.4392 13.6319 20.409 13.9092 20.3869C14.4603 20.3429 15.2513 20.3336 16.2018 20.3488C18.1006 20.379 20.6103 20.5062 23.0518 20.6399L23.0741 20.2331ZM13.2122 20.4365C13.2122 20.3008 13.1255 20.2117 13.052 20.1621C12.9784 20.1124 12.8849 20.078 12.788 20.0519C12.5915 19.9991 12.3186 19.9647 11.9951 19.9426C11.3443 19.8983 10.4418 19.9012 9.42571 19.9291C7.39304 19.985 4.87265 20.1424 2.94454 20.233L2.96366 20.64C4.90218 20.5489 7.40902 20.3921 9.43691 20.3364C10.4511 20.3085 11.3372 20.3061 11.9674 20.3491C12.2845 20.3707 12.5252 20.4031 12.6822 20.4454C12.7621 20.4669 12.8053 20.4871 12.8242 20.4999C12.8432 20.5127 12.8048 20.4937 12.8048 20.4365H13.2122ZM12.8048 5.35488V20.4365H13.2122V5.35488H12.8048Z" fill="black"/>
<path d="M11.9446 13.1162C9.05527 13.1044 7.38967 13.2078 4.40381 13.4304V6.518C7.53506 6.16804 9.24398 6.02889 11.9446 6.2038V13.1162Z" fill="white"/>
<path d="M4.40381 15.0014H6.60322M6.28902 15.0014H12.573M4.40381 15.6298H12.573M4.40381 16.5724H8.48842M9.11683 16.5724H12.2588M4.40381 17.2008H5.66061M6.28902 17.2008H12.2588M4.40381 17.8292H6.28902H12.2588M4.40381 18.7719H7.54582M8.17422 18.7719H12.2588M4.40381 13.4304C7.38967 13.2078 9.05527 13.1044 11.9446 13.1162V6.2038C9.24398 6.02889 7.53506 6.16804 4.40381 6.518V13.4304Z" stroke="black" stroke-width="0.407407"/>
<path d="M22.0727 14.0538C19.189 13.8714 17.5191 13.8979 14.5227 13.99L14.5227 10.4633C17.6731 10.2275 19.3888 10.1608 22.0727 10.5272L22.0727 14.0538Z" fill="white" stroke="black" stroke-width="0.407407"/>
<path d="M19.7996 18.6963H21.999H20.1138M19.7996 18.6963H20.1138M19.7996 18.6963H13.8298H20.1138M21.999 18.0679H13.8298M21.999 17.1253H17.9144M17.286 17.1253H14.144M21.999 16.4969H20.7422M20.1138 16.4969H14.144M21.999 15.8685H20.1138H14.144M21.999 14.9259H18.857M18.2286 14.9259H14.144" stroke="black" stroke-width="0.407407"/>
<path d="M21.999 8.95612H20.1138M19.1712 8.95612H13.8298M21.999 8.32772H13.8298M21.999 7.38512H17.9144M17.286 7.38512H14.144M21.999 6.75671H20.7422M20.1138 6.75671L14.144 6.75671" stroke="black" stroke-width="0.407407"/>
</svg>
