<svg width="25" height="26" viewBox="0 0 25 26" fill="none" xmlns="http://www.w3.org/2000/svg">
<rect x="0.313477" y="0.61499" width="24.6527" height="24.6527" rx="0.814815" fill="white"/>
<path d="M20.2286 22.9477L20.2286 2.83887H5.14697V22.9477H20.2286Z" fill="white"/>
<path d="M20.2286 2.83887L20.4323 2.83887C20.4323 2.78484 20.4109 2.73303 20.3727 2.69483C20.3345 2.65663 20.2827 2.63516 20.2286 2.63516V2.83887ZM20.2286 22.9477V23.1515C20.3411 23.1515 20.4323 23.0603 20.4323 22.9477L20.2286 22.9477ZM5.14697 22.9477H4.94327C4.94327 23.0603 5.03447 23.1515 5.14697 23.1515V22.9477ZM5.14697 2.83887V2.63516C5.03447 2.63516 4.94327 2.72636 4.94327 2.83887H5.14697ZM11.7452 4.09567V3.89197H11.5415V4.09567H11.7452ZM11.7452 6.29508H11.5415V6.49878H11.7452V6.29508ZM13.9446 6.29508V6.49878H14.1483V6.29508H13.9446ZM13.9446 4.09567H14.1483V3.89197H13.9446V4.09567ZM20.0249 2.83887L20.0249 22.9477L20.4323 22.9477L20.4323 2.83887L20.0249 2.83887ZM20.2286 22.744H5.14697V23.1515H20.2286V22.744ZM5.35068 22.9477V2.83887H4.94327V22.9477H5.35068ZM5.14697 3.04257H20.2286V2.63516H5.14697V3.04257ZM11.5415 4.09567V6.29508H11.9489V4.09567H11.5415ZM11.7452 6.49878H13.9446V6.09138H11.7452V6.49878ZM14.1483 6.29508V4.09567H13.7409V6.29508H14.1483ZM13.9446 3.89197H11.7452V4.29938H13.9446V3.89197ZM8.28898 8.06979H17.0866V7.66238H8.28898V8.06979ZM7.03218 13.097H18.3434V12.6896H7.03218V13.097ZM7.03218 14.3538H16.4582V13.9464H7.03218V14.3538ZM7.03218 15.6106H18.3434V15.2032H7.03218V15.6106ZM7.03218 18.7526H18.3434V18.3452H7.03218V18.7526ZM7.03218 20.0094H15.8298V19.602H7.03218V20.0094ZM7.03218 21.8946H18.9718V21.4872H7.03218V21.8946ZM9.23159 9.3266H12.5307V8.91919H9.23159V9.3266ZM12.5307 9.3266H15.8298V8.91919H12.5307V9.3266Z" fill="black"/>
</svg>
