<svg width="26" height="25" viewBox="0 0 26 25" fill="none" xmlns="http://www.w3.org/2000/svg">
<rect x="0.528809" y="0.174316" width="24.6527" height="24.6527" rx="0.814815" fill="white"/>
<path d="M18.5813 22.4644L18.5814 7.30713H7.43628V22.4644H18.5813Z" fill="white"/>
<path d="M18.5814 7.30713L18.7851 7.30713C18.7851 7.2531 18.7636 7.20129 18.7254 7.16309C18.6872 7.12489 18.6354 7.10343 18.5814 7.10343V7.30713ZM18.5813 22.4644V22.6681C18.6938 22.6681 18.785 22.5769 18.785 22.4644L18.5813 22.4644ZM7.43628 22.4644H7.23258C7.23258 22.5769 7.32378 22.6681 7.43628 22.6681V22.4644ZM7.43628 7.30713V7.10343C7.32378 7.10343 7.23258 7.19463 7.23258 7.30713H7.43628ZM12.3122 8.25446V8.05076H12.1085V8.25446H12.3122ZM12.3122 9.91229H12.1085V10.116H12.3122V9.91229ZM13.9376 9.91229V10.116H14.1413V9.91229H13.9376ZM13.9376 8.25446H14.1413V8.05076H13.9376V8.25446ZM18.3776 7.30713L18.3776 22.4644L18.785 22.4644L18.7851 7.30713L18.3776 7.30713ZM18.5813 22.2607H7.43628V22.6681H18.5813V22.2607ZM7.63998 22.4644V7.30713H7.23258V22.4644H7.63998ZM7.43628 7.51083H18.5814V7.10343H7.43628V7.51083ZM12.1085 8.25446V9.91229H12.516V8.25446H12.1085ZM12.3122 10.116H13.9376V9.70859H12.3122V10.116ZM14.1413 9.91229V8.25446H13.7339V9.91229H14.1413ZM13.9376 8.05076H12.3122V8.45816H13.9376V8.05076ZM9.75817 11.3002H16.2595V10.8927H9.75817V11.3002ZM8.82941 15.0895H17.1882V14.6821H8.82941V15.0895ZM8.82941 16.0368H15.7951V15.6294H8.82941V16.0368ZM8.82941 16.9841H17.1882V16.5767H8.82941V16.9841ZM8.82941 19.3525H17.1882V18.9451H8.82941V19.3525ZM8.82941 20.2998H15.3307V19.8924H8.82941V20.2998ZM8.82941 21.7208H17.6526V21.3134H8.82941V21.7208ZM10.4547 12.2475H12.8927V11.8401H10.4547V12.2475ZM12.8927 12.2475H15.3307V11.8401H12.8927V12.2475Z" fill="black"/>
<path d="M10.6858 4.00451C10.5852 3.93345 10.4462 3.95735 10.3751 4.05788C10.304 4.15841 10.3279 4.29751 10.4285 4.36856L10.6858 4.00451ZM13.009 7.97586L12.8015 8.05712C12.8349 8.14241 12.9171 8.1986 13.0087 8.19876C13.1003 8.19892 13.1826 8.14303 13.2163 8.05785L13.009 7.97586ZM16.9572 2.11391C17.0436 2.02619 17.0425 1.88506 16.9548 1.79869C16.867 1.71232 16.7259 1.71341 16.6395 1.80113L16.9572 2.11391ZM10.4285 4.36856C11.502 5.12727 11.9949 5.99691 12.8015 8.05712L13.2166 7.8946C12.4055 5.82282 11.8736 4.844 10.6858 4.00451L10.4285 4.36856ZM13.2163 8.05785C14.2511 5.44201 14.9955 4.10623 16.9572 2.11391L16.6395 1.80113C14.6259 3.84618 13.8526 5.23738 12.8018 7.89387L13.2163 8.05785Z" fill="black"/>
</svg>
