<svg width="26" height="26" viewBox="0 0 26 26" fill="none" xmlns="http://www.w3.org/2000/svg">
<rect x="0.57373" y="0.796387" width="24.6527" height="24.6527" rx="0.814815" fill="white"/>
<path d="M13.2766 23.5323L4.80632 8.37502L11.2705 14.1705L11.2705 3.47119L15.0598 3.47119L15.0598 14.1705L21.7468 8.37502L13.2766 23.5323Z" fill="black"/>
<path d="M13.2766 23.5323L13.1669 23.5936C13.1891 23.6334 13.231 23.658 13.2766 23.658C13.3221 23.658 13.3641 23.6334 13.3863 23.5936L13.2766 23.5323ZM4.80632 8.37502L4.89021 8.28145C4.84447 8.24043 4.77578 8.2385 4.7278 8.27688C4.67983 8.31526 4.66663 8.3827 4.6966 8.43633L4.80632 8.37502ZM21.7468 8.37502L21.8565 8.43633C21.8863 8.38305 21.8735 8.31608 21.8262 8.27755C21.7788 8.23902 21.7106 8.24007 21.6645 8.28005L21.7468 8.37502ZM13.2766 15.65L13.202 15.7511L13.2811 15.8095L13.3568 15.7467L13.2766 15.65ZM15.0598 14.1705L15.1401 14.2672L15.1421 14.2654L15.0598 14.1705ZM15.0598 3.47119H15.1855V3.34551H15.0598V3.47119ZM11.2705 3.47119V3.34551L11.1448 3.34551V3.47119H11.2705ZM11.2705 14.1705L11.1862 14.2645L11.1959 14.2716L11.2705 14.1705ZM13.3863 23.471L4.91603 8.31371L4.6966 8.43633L13.1669 23.5936L13.3863 23.471ZM21.6371 8.31371L13.1669 23.471L13.3863 23.5936L21.8565 8.43633L21.6371 8.31371ZM13.3568 15.7467L15.14 14.2672L14.9795 14.0737L13.1963 15.5533L13.3568 15.7467ZM15.1421 14.2654L21.8291 8.47L21.6645 8.28005L14.9775 14.0755L15.1421 14.2654ZM15.1855 14.1705L15.1855 3.47119H14.9341L14.9341 14.1705H15.1855ZM15.0598 3.34551L11.2705 3.34551V3.59687L15.0598 3.59687V3.34551ZM4.72242 8.4686L11.1866 14.264L11.3544 14.0769L4.89021 8.28145L4.72242 8.4686ZM11.1959 14.2716L13.202 15.7511L13.3512 15.5489L11.3451 14.0693L11.1959 14.2716ZM11.1448 3.47119L11.1448 14.1705H11.3961L11.3961 3.47119H11.1448Z" fill="black"/>
</svg>
