<svg width="26" height="26" viewBox="0 0 26 26" fill="none" xmlns="http://www.w3.org/2000/svg">
<rect x="0.620605" y="0.75061" width="24.6527" height="24.6527" rx="0.814815" fill="white"/>
<path d="M18.5813 22.2983L18.5814 7.14099H7.43628V22.2983H18.5813Z" fill="white"/>
<path d="M18.5814 7.14099L18.707 7.14099C18.707 7.10766 18.6938 7.07569 18.6702 7.05212C18.6467 7.02855 18.6147 7.01531 18.5814 7.01531V7.14099ZM18.5813 22.2983V22.424C18.6507 22.424 18.707 22.3677 18.707 22.2983L18.5813 22.2983ZM7.43628 22.2983H7.3106C7.3106 22.3677 7.36687 22.424 7.43628 22.424V22.2983ZM7.43628 7.14099V7.01531C7.36687 7.01531 7.3106 7.07158 7.3106 7.14099H7.43628ZM12.3122 8.08832V7.96264H12.1866V8.08832H12.3122ZM12.3122 9.74615H12.1866V9.87183H12.3122V9.74615ZM13.9376 9.74615V9.87183H14.0633V9.74615H13.9376ZM13.9376 8.08832H14.0633V7.96264H13.9376V8.08832ZM18.4557 7.14099L18.4556 22.2983L18.707 22.2983L18.707 7.14099L18.4557 7.14099ZM18.5813 22.1726H7.43628V22.424H18.5813V22.1726ZM7.56196 22.2983V7.14099H7.3106V22.2983H7.56196ZM7.43628 7.26667H18.5814V7.01531H7.43628V7.26667ZM12.1866 8.08832V9.74615H12.4379V8.08832H12.1866ZM12.3122 9.87183H13.9376V9.62047H12.3122V9.87183ZM14.0633 9.74615V8.08832H13.8119V9.74615H14.0633ZM13.9376 7.96264H12.3122V8.214H13.9376V7.96264ZM9.75817 11.056H16.2595V10.8046H9.75817V11.056ZM8.82941 14.8453H17.1882V14.594H8.82941V14.8453ZM8.82941 15.7927H15.7951V15.5413H8.82941V15.7927ZM8.82941 16.74H17.1882V16.4886H8.82941V16.74ZM8.82941 19.1083H17.1882V18.857H8.82941V19.1083ZM8.82941 20.0556H15.3307V19.8043H8.82941V20.0556ZM8.82941 21.4766H17.6526V21.2253H8.82941V21.4766ZM10.4547 12.0033H12.8927V11.752H10.4547V12.0033ZM12.8927 12.0033H15.3307V11.752H12.8927V12.0033Z" fill="black"/>
<path d="M9.06206 10.1038C8.9749 10.1908 8.97473 10.3319 9.06168 10.4191C9.14862 10.5062 9.28976 10.5064 9.37691 10.4194L9.06206 10.1038ZM18.7152 2.32257C18.8136 2.24867 18.8335 2.10894 18.7596 2.01049C18.6857 1.91204 18.546 1.89214 18.4475 1.96605L18.7152 2.32257ZM18.4226 10.0652C18.5091 10.1529 18.6502 10.1539 18.7379 10.0674C18.8255 9.98099 18.8265 9.83986 18.7401 9.7522L18.4226 10.0652ZM9.34801 1.60926C9.24743 1.53828 9.10835 1.56228 9.03737 1.66286C8.96638 1.76344 8.99038 1.90252 9.09096 1.9735L9.34801 1.60926ZM9.37691 10.4194C12.7524 7.05204 14.786 5.27212 18.7152 2.32257L18.4475 1.96605C14.5012 4.9285 12.4519 6.72216 9.06206 10.1038L9.37691 10.4194ZM18.7401 9.7522C15.2212 6.18368 13.1902 4.32076 9.34801 1.60926L9.09096 1.9735C12.9045 4.66477 14.915 6.50817 18.4226 10.0652L18.7401 9.7522Z" fill="black"/>
</svg>
